<svg width="16" height="19" viewBox="0 0 16 19" fill="none" xmlns="http://www.w3.org/2000/svg">
<path d="M3 18.25C2.45 18.25 1.979 18.054 1.587 17.662C1.195 17.27 0.999337 16.7993 1 16.25V3.25C0.71667 3.25 0.479004 3.154 0.287004 2.962C0.0950036 2.77 -0.000663206 2.53267 3.4602e-06 2.25C3.4602e-06 1.96667 0.0960036 1.729 0.288004 1.537C0.480004 1.345 0.717337 1.24934 1 1.25H5C5 0.96667 5.096 0.729003 5.288 0.537003C5.48 0.345003 5.71734 0.249337 6 0.250003H10C10.2833 0.250003 10.521 0.346004 10.713 0.538004C10.905 0.730004 11.0007 0.967337 11 1.25H15C15.2833 1.25 15.521 1.346 15.713 1.538C15.905 1.73 16.0007 1.96734 16 2.25C16 2.53334 15.904 2.771 15.712 2.963C15.52 3.155 15.2827 3.25067 15 3.25V16.25C15 16.8 14.804 17.271 14.412 17.663C14.02 18.055 13.5493 18.2507 13 18.25H3ZM3 3.25V16.25H13V3.25H3ZM5 13.25C5 13.5333 5.096 13.771 5.288 13.963C5.48 14.155 5.71734 14.2507 6 14.25C6.28334 14.25 6.521 14.154 6.713 13.962C6.905 13.77 7.00067 13.5327 7 13.25V6.25C7 5.96667 6.904 5.729 6.712 5.537C6.52 5.345 6.28267 5.24934 6 5.25C5.71667 5.25 5.479 5.346 5.287 5.538C5.095 5.73 4.99934 5.96734 5 6.25V13.25ZM9 13.25C9 13.5333 9.096 13.771 9.288 13.963C9.48 14.155 9.71734 14.2507 10 14.25C10.2833 14.25 10.521 14.154 10.713 13.962C10.905 13.77 11.0007 13.5327 11 13.25V6.25C11 5.96667 10.904 5.729 10.712 5.537C10.52 5.345 10.2827 5.24934 10 5.25C9.71667 5.25 9.479 5.346 9.287 5.538C9.095 5.73 8.99934 5.96734 9 6.25V13.25Z" fill="#8F949A"/>
</svg>
