<svg width="12" height="13" viewBox="0 0 12 13" fill="none" xmlns="http://www.w3.org/2000/svg">
<path d="M10.6667 8.5V11.1667H1.33333V8.5H10.6667ZM11.3333 7.16667H0.666667C0.3 7.16667 0 7.46667 0 7.83333V11.8333C0 12.2 0.3 12.5 0.666667 12.5H11.3333C11.7 12.5 12 12.2 12 11.8333V7.83333C12 7.46667 11.7 7.16667 11.3333 7.16667ZM2.66667 10.8333C2.12 10.8333 1.66667 10.3867 1.66667 9.83333C1.66667 9.28 2.12 8.83333 2.66667 8.83333C3.21333 8.83333 3.66667 9.28 3.66667 9.83333C3.66667 10.3867 3.22 10.8333 2.66667 10.8333ZM10.6667 1.83333V4.5H1.33333V1.83333H10.6667ZM11.3333 0.5H0.666667C0.3 0.5 0 0.8 0 1.16667V5.16667C0 5.53333 0.3 5.83333 0.666667 5.83333H11.3333C11.7 5.83333 12 5.53333 12 5.16667V1.16667C12 0.8 11.7 0.5 11.3333 0.5ZM2.66667 4.16667C2.12 4.16667 1.66667 3.72 1.66667 3.16667C1.66667 2.61333 2.12 2.16667 2.66667 2.16667C3.21333 2.16667 3.66667 2.62 3.66667 3.16667C3.66667 3.71333 3.22 4.16667 2.66667 4.16667Z" fill="#8996AE"/>
</svg>
