<?xml version="1.0" standalone="no"?><!DOCTYPE svg PUBLIC "-//W3C//DTD SVG 1.1//EN" "http://www.w3.org/Graphics/SVG/1.1/DTD/svg11.dtd"><svg t="1679282720177" class="icon" viewBox="0 0 1024 1024" version="1.1" xmlns="http://www.w3.org/2000/svg" p-id="2764" width="32" height="32" xmlns:xlink="http://www.w3.org/1999/xlink"><path d="M865.856 257.6a42.88 42.88 0 0 0-16.064 57.728 379.52 379.52 0 0 1 43.072 177.472c0 117.632-52.544 226.432-146.688 301.696a374.4 374.4 0 0 1-189.056 78.144 381.44 381.44 0 0 1-316.032-108.864 379.136 379.136 0 0 1-111.68-270.272A380.8 380.8 0 0 1 222.08 245.12c2.944-2.944 7.296-2.944 9.472 0l32.192 40.96a35.84 35.84 0 0 0 34.304 13.12 24.576 24.576 0 0 0 13.888-6.592 34.368 34.368 0 0 0 11.648-18.24l42.304-165.824a35.84 35.84 0 0 0-6.592-30.656A34.368 34.368 0 0 0 331.648 64H160.832a33.856 33.856 0 0 0-20.416 6.592 26.496 26.496 0 0 0-9.472 12.416c-5.12 11.712-3.648 25.6 4.352 36.544l35.776 46.72c2.176 2.176 1.472 5.824-0.704 8.064C71.808 280.256 21.504 432.896 55.808 595.072c40.896 190.656 200 336 393.408 360.832A467.456 467.456 0 0 0 979.072 492.8a457.6 457.6 0 0 0-54.72-218.432 42.304 42.304 0 0 0-58.496-16.768z" p-id="2765"></path></svg>