<svg width="212" height="203" viewBox="0 0 212 203" fill="none" xmlns="http://www.w3.org/2000/svg">
<rect width="212" height="203" rx="2" fill="#F7F8FA"/>
<path d="M79.5 81.25V121.75H133.5V81.25H79.5ZM79.5 74.5H133.5C135.29 74.5 137.007 75.2112 138.273 76.477C139.539 77.7429 140.25 79.4598 140.25 81.25V121.75C140.25 123.54 139.539 125.257 138.273 126.523C137.007 127.789 135.29 128.5 133.5 128.5H79.5C77.7098 128.5 75.9929 127.789 74.727 126.523C73.4612 125.257 72.75 123.54 72.75 121.75V81.25C72.75 79.4598 73.4612 77.7429 74.727 76.477C75.9929 75.2112 77.7098 74.5 79.5 74.5ZM91.3125 98.125C92.6552 98.125 93.9428 97.5916 94.8922 96.6422C95.8416 95.6928 96.375 94.4052 96.375 93.0625C96.375 91.7198 95.8416 90.4322 94.8922 89.4828C93.9428 88.5334 92.6552 88 91.3125 88C89.9698 88 88.6822 88.5334 87.7328 89.4828C86.7834 90.4322 86.25 91.7198 86.25 93.0625C86.25 94.4052 86.7834 95.6928 87.7328 96.6422C88.6822 97.5916 89.9698 98.125 91.3125 98.125ZM89.625 108.25L96.375 101.5L103.125 108.25L116.625 94.75L126.75 104.875V115H89.625V108.25Z" fill="#B0B0B0"/>
</svg>
